<svg width="250" height="250" viewBox="0 0 250 250" fill="none" xmlns="http://www.w3.org/2000/svg">
<circle cx="125" cy="125" r="125" fill="url(#paint0_linear_69_6)"/>
<path fill-rule="evenodd" clip-rule="evenodd" d="M214.111 60.6572C227.496 79.3357 234.694 101.738 234.694 124.717H197.117C197.117 124.663 197.117 124.609 197.117 124.555C197.117 84.6584 164.775 52.3162 124.879 52.3162C84.9824 52.3162 52.6402 84.6584 52.6402 124.555C52.6402 164.451 84.9824 196.793 124.879 196.793C131.277 196.793 137.481 195.961 143.388 194.4L153.181 230.946C130.985 236.894 107.483 235.739 85.9771 227.645C64.4709 219.551 46.0403 204.923 33.2738 185.817C20.5073 166.71 14.0463 144.085 14.7982 121.118C15.55 98.1515 23.477 75.9971 37.4657 57.7666C51.4545 39.5361 70.8023 26.1453 92.7919 19.4748C114.781 12.8044 138.308 13.1894 160.068 20.5757C181.827 27.9621 200.727 41.9788 214.111 60.6572ZM143.388 194.4L124.717 124.717H197.117C197.043 158.143 174.267 186.238 143.388 194.4Z" fill="black"/>
<defs>
<linearGradient id="paint0_linear_69_6" x1="250" y1="124.784" x2="1.16364e-05" y2="90.2418" gradientUnits="userSpaceOnUse">
<stop stop-color="#AC00AF"/>
<stop offset="0.73938" stop-color="#EB7100"/>
</linearGradient>
</defs>
</svg>
